<svg xmlns="http://www.w3.org/2000/svg" viewBox="0 0 36 36"><path fill="#FFAC33" d="M14.219 16.125c-2.156.812-4.5 4.312-3.875 7.156.281 1.281 1.719 3.031 2.375 2.5.875-.719 1.156-2.656.969-3.906-.188-1.25.969-3.219 2.219-3.625s1.469-1.938 1.469-1.938-1-.031-3.156-.187zm12.312-5.75s-2.094.062-4.125.75c-2.031.688-3.906 3.656-3.031 6.344.375 1.156 1.969 2.531 2.5 1.906.719-.844.75-2.75.438-3.938-.312-1.188.969-2.938 2.188-3.156 1.219-.219 1.562-1.688 1.562-1.688-1.5.062-2.5-.218-3.531-.218z"/><path fill="#E12726" d="M35.642 13.918c-.461-.758-1.411-.31-1.391.572.046 1.979-.344 4.542-1.675 6.04-1.36 1.531-3.69 2.062-5.269 1.127-1.442-.854-1.916-2.636-.889-4.004 1.137-1.514 3.125-1.928 4.673-1.053.473.267.92-.127.766-.632-.572-1.871-2.483-3.96-4.966-3.882-3.298.104-5.831 2.768-6.177 5.926-.39 3.559 1.832 6.848 5.253 7.625 4.316.98 8.653-1.272 9.771-5.465 1.01-3.791-.1-5.185-.096-6.254z"/><path fill="#FFCC4D" d="M19.123 21.053c-.347-.394-.658-.813-.935-1.252-1.414 1.341-3.14 2.348-5.163 2.656-1.556.237-2.668.618-2.668 1.579 0 2.229 4.319 4.148 7.399 4.148 2.378 0 4.417-1.144 5.342-2.784-1.306-.994-3.056-3.238-3.975-4.347z"/><path fill="#E12726" d="M19.049 13.315c-.477-.678-1.32-.149-1.218.667.23 1.848.163 4.254-.863 5.753-.941 1.371-2.923 1.967-4.413 1.25-1.362-.656-1.93-2.316-1.128-3.693.888-1.526 2.723-2.128 4.225-1.432.459.213.896-.219.697-.687-.738-1.741-2.825-3.522-5.143-3.219-3.076.402-5.195 3.237-5.26 6.35-.073 3.513 2.298 6.474 5.617 6.995 4.186.657 8.163-1.84 8.948-6.002.71-3.759-.447-5.064-.472-5.982z"/><path fill="#FFAC33" d="M11.666 22.458c-.375.057-.751.139-1.122.25 1.503 1.558 3.541 2.384 5.856 1.928.918-.181 1.769-.537 2.511-1.023-1.127-.247-2.261-.595-3.328-1.026-.816.31-2.368-.261-3.917-.129z"/></svg>
